<?xml version="1.0" encoding="utf-8"?>
<!-- Generator: Adobe Illustrator 16.0.4, SVG Export Plug-In . SVG Version: 6.00 Build 0)  -->
<!DOCTYPE svg PUBLIC "-//W3C//DTD SVG 1.1//EN" "http://www.w3.org/Graphics/SVG/1.1/DTD/svg11.dtd">
<svg version="1.1" id="Capa_1" xmlns="http://www.w3.org/2000/svg" xmlns:xlink="http://www.w3.org/1999/xlink" x="0px" y="0px"
	 width="216px" height="146px" viewBox="0 0 216 146" enable-background="new 0 0 216 146" xml:space="preserve">
<g fill="#333333">
	<path d="M165.439,38.579c-6.898-10.455-16.078-18.155-27.539-23.098c-0.705-0.271-1.412-0.407-2.117-0.407
		c-1.412,0-2.635,0.517-3.666,1.548c-1.033,1.032-1.549,2.255-1.549,3.667c0,1.955,1.059,3.558,3.178,4.807
		c0.381,0.216,0.99,0.501,1.832,0.855c0.842,0.352,1.453,0.637,1.834,0.854c2.498,1.357,4.725,2.743,6.682,4.155
		c6.68,4.942,11.896,11.107,15.643,18.494c3.748,7.387,5.621,15.235,5.621,23.546c0,8.312-1.873,16.159-5.621,23.546
		c-3.747,7.387-8.963,13.553-15.643,18.494c-1.957,1.412-4.184,2.797-6.682,4.155c-0.381,0.216-0.992,0.501-1.834,0.854
		c-0.842,0.352-1.451,0.637-1.832,0.855c-2.119,1.249-3.178,2.852-3.178,4.807c0,1.412,0.516,2.635,1.549,3.666
		c1.031,1.032,2.254,1.549,3.666,1.549c0.705,0,1.412-0.136,2.117-0.408c11.461-4.942,20.641-12.642,27.539-23.098
		c6.898-10.455,10.346-21.93,10.346-34.422S172.338,49.033,165.439,38.579z"/>
</g>
</svg>
