<?xml version="1.0" encoding="utf-8"?>
<!-- Generator: Adobe Illustrator 16.0.4, SVG Export Plug-In . SVG Version: 6.00 Build 0)  -->
<!DOCTYPE svg PUBLIC "-//W3C//DTD SVG 1.1//EN" "http://www.w3.org/Graphics/SVG/1.1/DTD/svg11.dtd">
<svg version="1.1" id="Capa_1" xmlns="http://www.w3.org/2000/svg" xmlns:xlink="http://www.w3.org/1999/xlink" x="0px" y="0px"
	 width="216px" height="146px" viewBox="0 0 216 146" enable-background="new 0 0 216 146" xml:space="preserve">
<g fill="#333333">
	<path d="M97.572,23.464c-1.412,0-2.634,0.517-3.666,1.548L66.775,52.143H45.429c-1.413,0-2.635,0.517-3.667,1.548
		c-1.032,1.032-1.548,2.255-1.548,3.667v31.285c0,1.412,0.516,2.635,1.548,3.666c1.033,1.032,2.255,1.549,3.667,1.549h21.345
		l27.131,27.131c1.032,1.031,2.254,1.548,3.666,1.548c1.413,0,2.635-0.517,3.667-1.548c1.032-1.031,1.548-2.254,1.548-3.666V28.679
		c0-1.412-0.516-2.635-1.547-3.667C100.206,23.981,98.985,23.464,97.572,23.464z"/>
</g>
</svg>
