<?xml version="1.0" encoding="utf-8"?>
<!-- Generator: Adobe Illustrator 16.0.4, SVG Export Plug-In . SVG Version: 6.00 Build 0)  -->
<!DOCTYPE svg PUBLIC "-//W3C//DTD SVG 1.1//EN" "http://www.w3.org/Graphics/SVG/1.1/DTD/svg11.dtd">
<svg version="1.1" id="Capa_1" xmlns="http://www.w3.org/2000/svg" xmlns:xlink="http://www.w3.org/1999/xlink" x="0px" y="0px"
	 width="216px" height="146px" viewBox="0 0 216 146" enable-background="new 0 0 216 146" xml:space="preserve">
<g fill="#333333">
	<path d="M148.004,96.016c4.617-7.033,6.926-14.705,6.926-23.016c0-8.311-2.309-15.982-6.926-23.019
		c-4.617-7.033-10.729-12.152-18.332-15.357c-0.705-0.271-1.412-0.407-2.117-0.407c-1.412,0-2.635,0.516-3.668,1.548
		c-1.031,1.032-1.547,2.254-1.547,3.666c0,2.119,1.059,3.721,3.178,4.808c3.041,1.575,5.105,2.77,6.191,3.584
		c4.02,2.934,7.156,6.613,9.41,11.04c2.254,4.427,3.381,9.139,3.381,14.136s-1.127,9.709-3.381,14.136
		c-2.254,4.428-5.391,8.106-9.41,11.039c-1.086,0.815-3.15,2.01-6.191,3.585c-2.119,1.087-3.178,2.689-3.178,4.808
		c0,1.412,0.516,2.635,1.547,3.666c1.033,1.033,2.281,1.549,3.748,1.549c0.652,0,1.332-0.137,2.037-0.407
		C137.275,108.169,143.387,103.05,148.004,96.016z"/>
</g>
</svg>
