<?xml version="1.0" encoding="utf-8"?>
<!-- Generator: Adobe Illustrator 16.0.4, SVG Export Plug-In . SVG Version: 6.00 Build 0)  -->
<!DOCTYPE svg PUBLIC "-//W3C//DTD SVG 1.1//EN" "http://www.w3.org/Graphics/SVG/1.1/DTD/svg11.dtd">
<svg version="1.1" id="Capa_1" xmlns="http://www.w3.org/2000/svg" xmlns:xlink="http://www.w3.org/1999/xlink" x="0px" y="0px"
	 width="216px" height="146px" viewBox="0 0 216 146" enable-background="new 0 0 216 146" xml:space="preserve">
<g fill="#333333">
	<path d="M130.609,84.527c2.309-3.557,3.463-7.399,3.463-11.527s-1.154-7.988-3.463-11.573c-2.31-3.585-5.363-6.11-9.166-7.577
		c-0.543-0.271-1.223-0.407-2.037-0.407c-1.412,0-2.635,0.503-3.666,1.507c-1.031,1.005-1.549,2.241-1.549,3.707
		c0,1.141,0.326,2.105,0.979,2.893c0.652,0.788,1.439,1.467,2.363,2.037c0.922,0.57,1.846,1.195,2.77,1.874s1.711,1.643,2.363,2.892
		c0.65,1.25,0.977,2.798,0.977,4.645c0,1.847-0.326,3.395-0.977,4.645c-0.652,1.25-1.439,2.213-2.363,2.893
		c-0.924,0.679-1.848,1.304-2.77,1.874c-0.924,0.569-1.711,1.249-2.363,2.036c-0.652,0.789-0.979,1.752-0.979,2.893
		c0,1.467,0.518,2.702,1.549,3.707s2.254,1.508,3.666,1.508c0.814,0,1.494-0.136,2.037-0.406
		C125.246,90.625,128.3,88.085,130.609,84.527z"/>
</g>
</svg>
